<svg width="200" height="200" viewBox="0 0 200 200" fill="none" xmlns="http://www.w3.org/2000/svg">
<path d="M200 100C200 155.228 155.228 200 100 200C44.7715 200 0 155.228 0 100C0 44.7715 44.7715 0 100 0C155.228 0 200 44.7715 200 100Z" fill="white"/>
<path d="M61.948 25.4095C59.3709 25.9618 58.1513 26.376 55.4131 27.6416C52.6058 28.9531 49.8676 30.794 48.0728 32.6118C45.5646 35.1429 44.7132 36.8687 45.6106 37.6281C46.1169 38.0422 46.0709 38.8706 45.5646 38.6635C44.6442 38.2724 41.7219 38.2724 40.8245 38.6405C39.5359 39.1928 38.2013 40.5044 37.7641 41.6779C37.2119 43.1275 37.419 45.2675 38.2703 46.8092C38.9146 48.0057 40.3183 49.2713 41.2617 49.5014C41.6989 49.6165 41.7909 49.8466 41.929 51.3883C42.1821 54.4026 42.6883 57.1869 43.5397 60.2933C45.0354 65.7467 44.6902 65.1715 48.694 69.2673C50.6729 71.2922 55.9883 76.7687 60.4984 81.4628C65.0314 86.1339 69.7025 90.9661 70.899 92.1627L73.085 94.3256L73.7063 93.7734C74.0285 93.4512 75.0179 92.2087 75.8693 91.0121C77.9172 88.1358 80.0572 86.1339 81.6219 85.6047C82.9795 85.1445 83.9919 85.2365 85.6487 85.9499C86.247 86.203 87.2134 86.4101 87.8347 86.4101C88.8011 86.4101 89.1233 86.272 90.3428 85.3516C91.1252 84.7763 91.8615 84.109 91.9766 83.8789C92.3217 83.2346 92.2527 80.9566 91.8615 80.2203C90.9871 78.4945 87.0984 76.0324 84.038 75.25C83.3016 75.0659 81.7139 74.9049 80.5174 74.9049C76.9968 74.9049 74.4426 75.7793 70.83 78.1954C69.7715 78.9317 68.7131 79.5069 68.506 79.5069C67.6776 79.5069 64.226 76.8607 61.7409 74.3296C60.4523 72.995 58.2664 69.5665 57.438 67.5415C57.0468 66.5981 56.5406 65.4016 56.3105 64.8723C56.0804 64.3661 55.7122 63.3307 55.5051 62.5713C54.9759 60.7075 54.2856 59.741 52.7669 58.6826C51.5473 57.8542 51.4553 57.8312 51.0641 58.1993C50.4658 58.7056 50.0056 58.4755 49.5454 57.463C48.9702 56.1284 48.7401 54.7018 48.717 52.6538C48.717 49.5935 49.0392 48.558 50.4658 47.0623L51.6854 45.7737L51.1331 44.8763C50.834 44.3701 50.1667 43.7028 49.6375 43.3807C47.7736 42.2762 47.1293 41.5398 46.8762 40.2052C46.485 38.0422 47.1293 36.2244 48.625 35.304C49.9136 34.5217 54.8148 32.5888 58.2664 31.5303C61.948 30.4028 62.3852 30.3108 65.4456 30.0576C67.4245 29.8736 68.1148 29.6895 70.9221 28.539C72.6939 27.8256 74.3736 27.1813 74.6728 27.1123C75.3861 26.9512 75.317 26.6981 74.4426 26.2839C72.5098 25.3865 71.1522 25.1564 67.5856 25.0644C64.7553 24.9954 63.6048 25.0644 61.948 25.4095ZM45.9788 41.4478C46.7382 41.7929 47.3364 42.1381 47.3364 42.2531C47.3364 42.4372 46.7151 42.5753 44.8053 42.7824C43.0565 42.9665 42.7574 43.9789 43.8849 45.6817C44.253 46.257 44.5752 46.8552 44.5752 46.9933C44.5752 47.5225 43.5167 47.3154 42.5503 46.6021C40.2262 44.9223 40.3643 42.4142 42.8264 41.2867C44.069 40.7115 44.3911 40.7345 45.9788 41.4478Z" fill="url(#paint0_linear_56_83)"/>
<path d="M86.7992 25.6627C82.7724 26.6751 81.3918 27.1583 76.5366 29.2293C74.0054 30.3108 71.8425 31.1851 71.7274 31.1851C71.5894 31.1851 70.5309 31.5073 69.3804 31.8755C67.9077 32.3587 66.412 32.6578 64.6172 32.7959C62.3392 33.003 61.4418 33.2101 58.1743 34.3376C53.5032 35.9483 50.4198 37.2369 49.7065 37.9042C49.1082 38.4564 49.0392 39.3768 49.5224 40.0211C49.7065 40.2512 50.3278 40.7805 50.926 41.1717C51.6163 41.6089 52.2837 42.3222 52.6978 43.0355C54.3086 45.7967 55.9883 47.2004 58.6805 48.0287C63.2366 49.4094 67.9537 46.6941 69.3113 41.908C69.5874 40.9876 69.6795 39.9521 69.6335 38.5945L69.5414 36.6156L70.83 35.9483C72.3487 35.1659 74.7188 34.8438 75.294 35.327C75.5011 35.4881 76.0764 36.3165 76.5596 37.1678C77.5721 38.9166 78.4234 39.653 80.6324 40.6654C81.967 41.2867 82.4502 41.4018 84.038 41.4018C86.293 41.4248 87.9037 40.7575 89.6755 39.1007C91.7925 37.1218 92.5518 34.5447 91.9996 31.3232C91.7464 29.8966 91.7695 29.7355 92.2066 29.1832C92.92 28.2858 92.8509 26.2839 92.0916 25.5476C91.3553 24.7883 90.1127 24.8113 86.7992 25.6627ZM82.3352 32.1746C82.9565 32.5888 83.1406 32.8649 83.1866 33.6012C83.2556 34.3146 83.1636 34.5677 82.7264 34.9128C81.967 35.4881 81.4608 35.4191 80.6785 34.6597C79.9191 33.9004 79.8041 32.9569 80.3793 32.1516C80.8165 31.5073 81.3458 31.5073 82.3352 32.1746ZM58.6115 38.7095C59.8541 39.5609 60.1072 40.5044 59.3018 41.3097C57.8752 42.7364 55.5511 40.2512 56.9317 38.7326C57.392 38.2033 57.8752 38.2033 58.6115 38.7095Z" fill="url(#paint1_linear_56_83)"/>
<path d="M72.3257 37.6741C71.7044 37.9042 71.6814 37.9732 71.8195 38.9627C71.8885 39.5609 72.0496 40.1132 72.1646 40.2282C72.3487 40.4123 74.9489 39.699 74.9489 39.4689C74.9489 39.3999 74.6958 38.9396 74.4196 38.4334C73.8674 37.444 73.4072 37.2829 72.3257 37.6741Z" fill="url(#paint2_linear_56_83)"/>
<path d="M93.7023 41.6319C89.7906 42.3682 87.7887 43.0355 87.5356 43.7028C87.3515 44.14 88.8241 45.4516 89.3764 45.3365C89.6065 45.2905 91.2862 44.9684 93.1271 44.6232C98.5115 43.6338 98.6956 43.5647 99.1098 42.8744C99.3629 42.3912 99.3859 42.1381 99.2018 41.839C98.8797 41.3097 96.0264 41.2177 93.7023 41.6319Z" fill="url(#paint3_linear_56_83)"/>
<path d="M75.1099 42.2531C73.2231 42.6903 71.9575 43.7948 71.4743 45.4516C71.2442 46.2109 71.2672 46.441 71.6584 47.1083C72.2336 48.0978 73.6373 49.0412 75.0639 49.4094C75.7082 49.5704 76.2375 49.6855 76.2605 49.7085C76.2835 49.7085 76.0994 50.3298 75.8463 51.0661C75.294 52.7689 74.2125 54.1035 72.6248 55.0469C71.4283 55.7602 68.2989 56.7267 67.2174 56.7267C66.6421 56.7267 65.9748 57.2789 65.9748 57.7621C65.9748 58.3604 66.8032 59.0737 67.7466 59.2578C69.2193 59.5109 71.1752 59.1197 73.2231 58.1303C75.1099 57.2099 76.0534 56.4505 77.48 54.6787L78.3084 53.6663L79.2058 54.1265C80.0112 54.5407 80.9086 54.7938 83.1636 55.254L83.6698 55.346L83.0945 56.7727C82.4042 58.5675 82.4042 59.1888 83.1176 61.6509C84.3141 65.7467 87.1214 70.1417 89.9056 72.2126C91.5394 73.4322 91.6314 73.4322 92.4368 72.0516C92.8049 71.3843 93.1271 70.671 93.1271 70.4639C93.1271 70.2798 92.7129 69.7736 92.2067 69.3824C91.2402 68.623 88.8932 65.5166 88.1108 63.9749C87.4205 62.5943 85.5336 57.0718 85.5336 56.4045C85.5336 55.9443 85.8788 55.5992 87.2364 54.6557C89.6295 52.999 90.734 51.2042 89.8826 50.3528C89.6985 50.1687 89.9056 50.1457 90.6189 50.2838C91.1712 50.3758 92.3677 50.6059 93.2421 50.744C94.1395 50.905 95.4051 51.2272 96.0954 51.4573C96.7857 51.7104 97.6371 51.8945 97.9823 51.8945C99.3399 51.8945 99.685 49.9846 98.5345 48.9031C97.8442 48.2589 94.0935 47.2924 91.6084 47.1313L89.7445 46.9933L89.2153 48.0978C88.8011 48.9262 88.7321 49.2943 88.9392 49.5935C89.1463 49.9156 88.9852 50.1227 87.9267 50.813C85.1425 52.6308 81.6679 52.3317 78.4695 49.9616C77.7331 49.4324 77.7331 49.4324 78.2394 49.2023C78.5385 49.0642 79.2058 48.3049 79.735 47.5225C80.5634 46.28 80.7015 45.8888 80.7015 44.8763C80.7015 43.5647 80.4714 43.1736 79.3208 42.4832C78.4465 41.954 76.7437 41.862 75.1099 42.2531ZM77.8482 43.2426C78.0323 43.7028 77.5721 44.4621 77.0198 44.6462C76.5136 44.8073 75.4091 44.232 75.4091 43.8409C75.4091 43.5417 76.5826 42.9435 77.2039 42.9204C77.48 42.9204 77.7792 43.0585 77.8482 43.2426Z" fill="url(#paint4_linear_56_83)"/>
<path d="M86.6151 46.7632C86.5231 46.8322 86.4541 47.2464 86.4541 47.6836C86.4541 48.2128 86.5691 48.4429 86.8222 48.4429C87.4435 48.4429 88.0648 47.9827 88.0648 47.5225C88.0648 46.9012 87.0063 46.349 86.6151 46.7632Z" fill="url(#paint5_linear_56_83)"/>
<path d="M66.1129 50.0767C65.6297 50.79 65.6527 51.2732 66.2279 51.8024C67.2634 52.7459 68.0688 51.0661 67.0563 50.0767L66.481 49.5704L66.1129 50.0767Z" fill="url(#paint6_linear_56_83)"/>
<path d="M57.3459 52.4698C54.9529 53.5512 52.951 54.4256 52.9279 54.4256C52.9049 54.4256 52.7669 54.6327 52.6288 54.8858C52.4447 55.231 52.4907 55.4381 52.8589 55.8063C53.5722 56.5196 54.7228 56.3815 57.438 55.254C58.7726 54.6787 60.6824 53.8964 61.6719 53.5052C63.6048 52.6999 63.9729 52.3087 63.7658 51.2272C63.5127 50.0076 62.4082 50.2147 57.3459 52.4698Z" fill="url(#paint7_linear_56_83)"/>
<path d="M34.9799 52.0556C33.5532 52.1016 32.3797 52.2166 32.3797 52.3087C32.4027 52.6538 40.0421 60.2703 40.1342 60.0171C40.2722 59.649 39.1677 52.4007 38.9606 52.1936C38.8226 52.0325 37.3039 51.9865 34.9799 52.0556Z" fill="url(#paint8_linear_56_83)"/>
<path d="M24.5101 53.045C23.2446 54.0344 22.7843 56.4045 23.5437 58.0152C23.9119 58.7976 28.9972 63.7678 33.3001 67.5645C36.5446 70.3948 44.3451 78.2644 45.5186 79.8521L46.5541 81.2327L49.0852 81.3478C50.88 81.4398 51.7774 81.5779 52.1686 81.831C53.2271 82.5443 54.0785 83.5338 54.6537 84.7763C55.16 85.9038 55.206 86.1799 55.0679 88.0208L54.9298 90.0227L57.0468 92.0016C60.2683 94.9699 98.4425 133.282 111.305 146.421C119.244 154.567 119.497 154.774 121.292 154.429C122.235 154.245 123.363 153.37 123.846 152.427C124.03 152.082 124.191 151.276 124.191 150.632C124.191 149.666 124.053 149.343 123.294 148.354C122.787 147.733 122.097 146.996 121.729 146.72C121.016 146.168 101.986 127.461 95.244 120.696C69.8406 95.177 60.7285 85.9498 54.0094 78.9317C46.7151 71.2922 28.767 53.2061 28.2148 52.9069C27.2484 52.4237 25.2004 52.4927 24.5101 53.045Z" fill="url(#paint9_linear_56_83)"/>
<path d="M61.0966 56.8878C58.0363 59.8331 57.2079 61.3748 57.9212 62.7324C58.4044 63.6068 59.2098 63.2846 60.4063 61.7429C61.0046 60.9376 62.2932 59.4419 63.2596 58.4064C65.1234 56.4506 65.2155 56.2204 64.4101 55.277C64.226 55.0699 63.8579 54.8858 63.6278 54.8858C63.3977 54.8858 62.2472 55.7833 61.0966 56.8878Z" fill="url(#paint10_linear_56_83)"/>
<path d="M88.6631 58.7286C89.1923 61.0526 90.9871 64.3661 92.7819 66.345C93.9555 67.6336 94.1395 67.7487 94.4847 67.4725C94.6918 67.2884 95.4051 66.9433 96.0724 66.6902L97.2689 66.253L93.2191 62.3642C88.6401 57.9462 88.433 57.7852 88.6631 58.7286Z" fill="url(#paint11_linear_56_83)"/>
<path d="M98.4195 69.3134C96.2105 70.1187 93.3572 74.0995 93.6563 75.9633C93.8404 77.0448 94.3696 77.8502 95.152 78.1954C95.4971 78.3334 96.1644 78.7936 96.6477 79.2078C97.384 79.8751 97.6601 79.9672 98.7416 79.9672C101.503 79.9672 105.023 78.2874 105.944 76.5386C106.565 75.3191 106.634 73.6163 106.105 72.4658C104.908 69.9346 101.043 68.3469 98.4195 69.3134Z" fill="url(#paint12_linear_56_83)"/>
<path d="M33.5302 70.3258C33.5302 70.9241 34.9338 74.3066 36.0844 76.3775C36.8667 77.7812 37.8101 79.507 38.2013 80.1973C39.3058 82.2452 41.883 85.4896 42.3892 85.4896C42.5273 85.4896 42.8724 84.9374 43.1715 84.2471C43.4477 83.5568 43.8388 82.8665 44.0229 82.7054C44.5292 82.2912 44.4141 81.9461 43.3786 80.8646C42.3662 79.8061 38.9837 76.1244 37.1889 74.0995C35.6241 72.3277 33.5302 70.1647 33.5302 70.3258Z" fill="url(#paint13_linear_56_83)"/>
<path d="M104.517 81.0947C103.482 81.3478 102.791 81.785 102.791 82.1761C102.791 82.6133 103.942 83.7178 105.208 84.5232C106.496 85.3516 108.935 86.295 110.753 86.7092C112.502 87.1234 118.231 87.8597 122.35 88.2509C126.354 88.619 127.919 88.8722 134.316 90.1377C140.252 91.3113 143.566 92.3007 145.43 93.4742L146.327 94.0265L146.166 93.2671C145.729 91.2192 142.622 87.1004 140.022 85.1445C136.847 82.7514 134.178 81.808 130.174 81.6469C126.768 81.5088 124.237 81.785 120.279 82.7744C115.332 83.994 111.696 83.6948 107.417 81.6929C105.645 80.8415 105.599 80.8415 104.517 81.0947Z" fill="url(#paint14_linear_56_83)"/>
<path d="M47.7966 84.5922C46.1169 85.2595 44.9203 87.2844 44.3451 90.4369C44.184 91.3113 43.8158 93.1751 43.4937 94.5787C43.1946 95.9594 42.7343 98.1914 42.4812 99.526C42.2281 100.861 41.7679 103.07 41.4688 104.473C41.1466 105.854 40.6404 108.201 40.3413 109.651C40.0421 111.1 39.2598 114.782 38.6155 117.819C37.9712 120.857 37.1658 124.63 36.8437 126.218C36.5215 127.806 36.0613 129.808 35.8312 130.705C35.6011 131.579 35.348 132.707 35.256 133.167C35.1869 133.65 34.9338 134.134 34.7037 134.249C34.4736 134.387 32.7018 135.008 30.7459 135.675C24.7632 137.677 23.9579 138.137 23.2676 139.932C22.5542 141.819 23.3136 144.166 24.9933 145.156C26.2589 145.892 27.3174 145.685 34.8188 143.131C42.9645 140.346 46.6921 139.15 52.5138 137.493C54.7918 136.849 57.9442 135.905 59.5319 135.422C61.1196 134.939 65.0544 133.742 68.2759 132.776C77.8022 129.923 87.8577 126.586 87.7887 126.31C87.7426 126.172 86.408 124.676 84.7973 122.997L81.852 119.959L80.1952 120.419C79.2748 120.672 77.6411 121.156 76.5596 121.501C75.4781 121.846 72.1186 122.835 69.0812 123.71C66.0439 124.607 62.3162 125.712 60.7975 126.218C59.2788 126.701 56.1264 127.668 53.7793 128.381C51.4323 129.094 48.1878 130.13 46.5541 130.705C44.9203 131.28 43.5397 131.74 43.4937 131.74C43.1255 131.74 43.9079 127.461 45.3805 121.156C45.8177 119.315 46.7612 115.173 47.4515 111.952C48.1648 108.73 49.0852 104.473 49.5224 102.517C49.9596 100.561 50.3738 98.5365 50.4428 98.0303C50.5349 97.5241 51.0181 95.3151 51.5013 93.1291C52.5598 88.435 52.6288 87.0543 51.8695 85.9268C50.9721 84.5922 49.2233 84.04 47.7966 84.5922ZM38.7075 135.215C39.4899 136.158 39.4439 137.355 38.5695 137.999C38.0172 138.414 37.9022 138.414 37.1428 138.114C35.8542 137.562 35.5551 136.734 36.1534 135.307C36.4525 134.617 36.6136 134.502 37.3039 134.502C37.9022 134.502 38.2243 134.663 38.7075 135.215Z" fill="url(#paint15_linear_56_83)"/>
<path d="M80.8855 89.3324C80.2182 90.2068 79.0447 91.7024 78.3084 92.6919C77.572 93.6813 76.5136 94.8779 75.9383 95.3381L74.9259 96.2125L91.7004 113.171L93.5182 112.757C96.4866 112.067 108.659 108.385 112.111 107.142C116.897 105.417 118.323 105.21 125.802 105.187L132.153 105.164L133.51 105.969C135.558 107.165 137.054 108.799 138.066 110.87C139.47 113.792 139.953 115.794 139.93 118.855C139.93 123.043 139.079 126.31 135.765 134.916C133.602 140.576 132.866 143.453 132.245 148.768C131.6 154.176 131.692 161.309 132.429 164.875C133.786 171.249 135.581 175 137.307 175C138.826 175 139.033 173.734 138.112 169.846C137.284 166.371 136.985 163.196 137.146 159.583C137.491 151.76 139.332 147.48 146.028 138.874C148.421 135.813 150.124 133.144 152.471 128.818C155.048 124.101 155.968 120.696 155.968 115.863C155.968 111.445 154.979 107.879 152.563 103.783C150.055 99.503 144.026 94.9929 139.608 94.0955C137.054 93.5893 131.877 93.7964 127.182 94.6017C124.375 95.108 123.662 95.154 122.695 94.9469C120.026 94.3486 118.876 94.2796 116.69 94.4867C114.02 94.7398 110.891 95.5452 108.268 96.6727C104.126 98.4445 98.6726 98.0993 92.5058 95.6372C89.8136 94.5787 85.2575 91.2882 83.6698 89.2863C83.0255 88.458 82.4042 87.7907 82.3122 87.7907C82.1971 87.7907 81.5528 88.481 80.8855 89.3324Z" fill="url(#paint16_linear_56_83)"/>
<path d="M54.2395 93.8654C54.2395 94.0495 53.9634 95.062 53.6413 96.0974L53.043 97.9843L54.8608 99.8021C57.3689 102.356 62.5463 106.682 65.9748 109.075C68.621 110.916 75.9383 115.403 76.9278 115.794C77.411 115.978 59.0487 97.432 56.4715 95.131C54.6537 93.5203 54.2395 93.2902 54.2395 93.8654Z" fill="url(#paint17_linear_56_83)"/>
<path d="M151.85 95.0389C149.433 95.5682 149.433 95.6142 151.758 98.0073C153.69 100.009 154.45 101.068 155.577 103.3C155.876 103.875 156.245 104.266 156.544 104.312C156.981 104.381 161.146 102.425 161.928 101.781C162.618 101.229 163.079 100.331 163.079 99.595C163.079 98.5135 161.79 97.1789 159.765 96.1895C156.774 94.6938 154.749 94.4177 151.85 95.0389Z" fill="url(#paint18_linear_56_83)"/>
<path d="M123.892 109.121L119.566 109.19L120.233 110.18C121.223 111.629 121.499 112.665 121.361 114.552C121.292 115.472 121.2 116.416 121.154 116.669C121.085 117.106 121.292 117.129 128.218 117.451C132.153 117.635 135.65 117.704 135.995 117.612C136.387 117.52 136.617 117.313 136.617 117.06C136.617 115.748 134.753 110.709 133.809 109.535C133.372 108.983 133.28 108.96 130.795 109.006C129.368 109.052 126.262 109.098 123.892 109.121Z" fill="url(#paint19_linear_56_83)"/>
<path d="M114.987 109.558C113.33 110.318 106.197 112.619 101.986 113.769C96.6246 115.242 94.5307 115.886 94.3926 116.07C94.2546 116.324 101.043 123.227 101.434 123.227C101.618 123.227 103.068 122.812 104.632 122.283C106.22 121.777 108.567 121.11 109.856 120.811C112.594 120.166 115.861 118.878 116.966 118.049C118.646 116.761 119.612 113.401 118.807 111.675C117.817 109.582 116.506 108.868 114.987 109.558Z" fill="url(#paint20_linear_56_83)"/>
<path d="M158.73 109.351C158.292 109.443 158.223 109.558 158.338 110.065C158.408 110.41 158.615 111.399 158.799 112.297C159.006 113.171 159.167 114.506 159.167 115.219C159.167 116.416 159.213 116.554 159.696 116.646C159.972 116.715 162.227 116.807 164.689 116.876C169.867 117.014 173.479 116.784 174.538 116.231C176.333 115.311 177.23 112.251 176.195 110.617C175.343 109.236 174.952 109.167 166.691 109.213C162.618 109.236 159.029 109.305 158.73 109.351Z" fill="url(#paint21_linear_56_83)"/>
<path d="M159.029 119.2C158.799 119.798 159.144 120.696 159.604 120.696C160.133 120.696 166.3 119.154 166.484 118.993C166.553 118.924 164.919 118.855 162.872 118.855C159.765 118.855 159.121 118.924 159.029 119.2Z" fill="url(#paint22_linear_56_83)"/>
<path d="M119.451 120.212C117.656 121.041 117.909 121.248 120.417 121.087C121.66 120.995 123.317 120.926 124.076 120.903H125.457L124.605 120.58C124.145 120.396 123.248 120.212 122.649 120.12C122.051 120.051 121.292 119.936 120.97 119.867C120.647 119.821 119.957 119.982 119.451 120.212Z" fill="url(#paint23_linear_56_83)"/>
<path d="M157.464 127.184C157.165 127.852 156.452 129.232 155.876 130.222L154.841 132.04L155.968 132.615C157.073 133.19 161.238 136.872 161.008 137.102C160.824 137.286 153.598 137.677 152.356 137.562C151.205 137.447 151.182 137.47 150.216 138.575C149.687 139.173 148.743 140.346 148.099 141.175C147.155 142.371 146.994 142.693 147.316 142.739C147.524 142.785 149.065 142.67 150.745 142.463C152.402 142.279 155.531 142.049 157.671 141.98C159.834 141.888 162.319 141.681 163.194 141.497C164.091 141.313 164.896 141.175 165.011 141.175C165.127 141.175 166.162 142.095 167.313 143.2C168.463 144.327 169.66 145.409 169.982 145.616C170.626 146.053 172.605 146.145 173.594 145.754C175.205 145.156 176.241 143.269 175.757 141.796C175.458 140.899 170.81 136.435 164.712 131.142C159.765 126.862 158.684 126.011 158.292 125.988C158.131 125.988 157.763 126.54 157.464 127.184Z" fill="url(#paint24_linear_56_83)"/>
<path d="M87.2594 130.153C85.9939 130.521 83.5087 131.28 81.7369 131.833C76.9508 133.328 66.0208 136.412 64.4331 136.711C63.5587 136.872 63.4897 137.194 64.134 137.999C65.0084 139.127 65.6757 139.219 68.8051 138.644C70.3468 138.344 73.2691 137.677 75.294 137.148C78.3544 136.32 79.5049 135.882 82.1971 134.502C83.9689 133.581 85.7868 132.546 86.224 132.178C86.6612 131.81 87.5586 131.165 88.2028 130.728C89.1693 130.084 89.9516 129.393 89.6295 129.462C89.5835 129.462 88.525 129.785 87.2594 130.153Z" fill="url(#paint25_linear_56_83)"/>
<path d="M122.465 141.796C121.591 141.842 120.717 141.934 120.555 141.98C120.118 142.141 122.442 144.741 123.639 145.455C124.49 145.961 124.812 146.007 127.482 146.007H130.404V145.34C130.404 144.971 130.611 144.005 130.864 143.2C131.117 142.417 131.324 141.727 131.324 141.681C131.324 141.612 124.582 141.704 122.465 141.796Z" fill="url(#paint26_linear_56_83)"/>
<defs>
<linearGradient id="paint0_linear_56_83" x1="99.8165" y1="175" x2="99.8165" y2="25" gradientUnits="userSpaceOnUse">
<stop stop-color="#BD2333"/>
<stop offset="0.5" stop-color="#000C34"/>
</linearGradient>
<linearGradient id="paint1_linear_56_83" x1="99.8165" y1="175" x2="99.8165" y2="25" gradientUnits="userSpaceOnUse">
<stop stop-color="#BD2333"/>
<stop offset="0.5" stop-color="#000C34"/>
</linearGradient>
<linearGradient id="paint2_linear_56_83" x1="99.8165" y1="175" x2="99.8165" y2="25" gradientUnits="userSpaceOnUse">
<stop stop-color="#BD2333"/>
<stop offset="0.5" stop-color="#000C34"/>
</linearGradient>
<linearGradient id="paint3_linear_56_83" x1="99.8165" y1="175" x2="99.8165" y2="25" gradientUnits="userSpaceOnUse">
<stop stop-color="#BD2333"/>
<stop offset="0.5" stop-color="#000C34"/>
</linearGradient>
<linearGradient id="paint4_linear_56_83" x1="99.8165" y1="175" x2="99.8165" y2="25" gradientUnits="userSpaceOnUse">
<stop stop-color="#BD2333"/>
<stop offset="0.5" stop-color="#000C34"/>
</linearGradient>
<linearGradient id="paint5_linear_56_83" x1="99.8165" y1="175" x2="99.8165" y2="25" gradientUnits="userSpaceOnUse">
<stop stop-color="#BD2333"/>
<stop offset="0.5" stop-color="#000C34"/>
</linearGradient>
<linearGradient id="paint6_linear_56_83" x1="99.8165" y1="175" x2="99.8165" y2="25" gradientUnits="userSpaceOnUse">
<stop stop-color="#BD2333"/>
<stop offset="0.5" stop-color="#000C34"/>
</linearGradient>
<linearGradient id="paint7_linear_56_83" x1="99.8165" y1="175" x2="99.8165" y2="25" gradientUnits="userSpaceOnUse">
<stop stop-color="#BD2333"/>
<stop offset="0.5" stop-color="#000C34"/>
</linearGradient>
<linearGradient id="paint8_linear_56_83" x1="99.8165" y1="175" x2="99.8165" y2="25" gradientUnits="userSpaceOnUse">
<stop stop-color="#BD2333"/>
<stop offset="0.5" stop-color="#000C34"/>
</linearGradient>
<linearGradient id="paint9_linear_56_83" x1="99.8165" y1="175" x2="99.8165" y2="25" gradientUnits="userSpaceOnUse">
<stop stop-color="#BD2333"/>
<stop offset="0.5" stop-color="#000C34"/>
</linearGradient>
<linearGradient id="paint10_linear_56_83" x1="99.8165" y1="175" x2="99.8165" y2="25" gradientUnits="userSpaceOnUse">
<stop stop-color="#BD2333"/>
<stop offset="0.5" stop-color="#000C34"/>
</linearGradient>
<linearGradient id="paint11_linear_56_83" x1="99.8165" y1="175" x2="99.8165" y2="25" gradientUnits="userSpaceOnUse">
<stop stop-color="#BD2333"/>
<stop offset="0.5" stop-color="#000C34"/>
</linearGradient>
<linearGradient id="paint12_linear_56_83" x1="99.8165" y1="175" x2="99.8165" y2="25" gradientUnits="userSpaceOnUse">
<stop stop-color="#BD2333"/>
<stop offset="0.5" stop-color="#000C34"/>
</linearGradient>
<linearGradient id="paint13_linear_56_83" x1="99.8165" y1="175" x2="99.8165" y2="25" gradientUnits="userSpaceOnUse">
<stop stop-color="#BD2333"/>
<stop offset="0.5" stop-color="#000C34"/>
</linearGradient>
<linearGradient id="paint14_linear_56_83" x1="99.8165" y1="175" x2="99.8165" y2="25" gradientUnits="userSpaceOnUse">
<stop stop-color="#BD2333"/>
<stop offset="0.5" stop-color="#000C34"/>
</linearGradient>
<linearGradient id="paint15_linear_56_83" x1="99.8165" y1="175" x2="99.8165" y2="25" gradientUnits="userSpaceOnUse">
<stop stop-color="#BD2333"/>
<stop offset="0.5" stop-color="#000C34"/>
</linearGradient>
<linearGradient id="paint16_linear_56_83" x1="99.8165" y1="175" x2="99.8165" y2="25" gradientUnits="userSpaceOnUse">
<stop stop-color="#BD2333"/>
<stop offset="0.5" stop-color="#000C34"/>
</linearGradient>
<linearGradient id="paint17_linear_56_83" x1="99.8165" y1="175" x2="99.8165" y2="25" gradientUnits="userSpaceOnUse">
<stop stop-color="#BD2333"/>
<stop offset="0.5" stop-color="#000C34"/>
</linearGradient>
<linearGradient id="paint18_linear_56_83" x1="99.8165" y1="175" x2="99.8165" y2="25" gradientUnits="userSpaceOnUse">
<stop stop-color="#BD2333"/>
<stop offset="0.5" stop-color="#000C34"/>
</linearGradient>
<linearGradient id="paint19_linear_56_83" x1="99.8165" y1="175" x2="99.8165" y2="25" gradientUnits="userSpaceOnUse">
<stop stop-color="#BD2333"/>
<stop offset="0.5" stop-color="#000C34"/>
</linearGradient>
<linearGradient id="paint20_linear_56_83" x1="99.8165" y1="175" x2="99.8165" y2="25" gradientUnits="userSpaceOnUse">
<stop stop-color="#BD2333"/>
<stop offset="0.5" stop-color="#000C34"/>
</linearGradient>
<linearGradient id="paint21_linear_56_83" x1="99.8165" y1="175" x2="99.8165" y2="25" gradientUnits="userSpaceOnUse">
<stop stop-color="#BD2333"/>
<stop offset="0.5" stop-color="#000C34"/>
</linearGradient>
<linearGradient id="paint22_linear_56_83" x1="99.8165" y1="175" x2="99.8165" y2="25" gradientUnits="userSpaceOnUse">
<stop stop-color="#BD2333"/>
<stop offset="0.5" stop-color="#000C34"/>
</linearGradient>
<linearGradient id="paint23_linear_56_83" x1="99.8165" y1="175" x2="99.8165" y2="25" gradientUnits="userSpaceOnUse">
<stop stop-color="#BD2333"/>
<stop offset="0.5" stop-color="#000C34"/>
</linearGradient>
<linearGradient id="paint24_linear_56_83" x1="99.8165" y1="175" x2="99.8165" y2="25" gradientUnits="userSpaceOnUse">
<stop stop-color="#BD2333"/>
<stop offset="0.5" stop-color="#000C34"/>
</linearGradient>
<linearGradient id="paint25_linear_56_83" x1="99.8165" y1="175" x2="99.8165" y2="25" gradientUnits="userSpaceOnUse">
<stop stop-color="#BD2333"/>
<stop offset="0.5" stop-color="#000C34"/>
</linearGradient>
<linearGradient id="paint26_linear_56_83" x1="99.8165" y1="175" x2="99.8165" y2="25" gradientUnits="userSpaceOnUse">
<stop stop-color="#BD2333"/>
<stop offset="0.5" stop-color="#000C34"/>
</linearGradient>
</defs>
</svg>
