<svg width="154" height="150" viewBox="0 0 154 150" fill="none" xmlns="http://www.w3.org/2000/svg">
<path d="M38.948 0.40955C36.3709 0.961799 35.1513 1.37599 32.4131 2.64156C29.6058 3.95315 26.8676 5.79398 25.0728 7.6118C22.5646 10.1429 21.7132 11.8687 22.6106 12.6281C23.1169 13.0422 23.0709 13.8706 22.5646 13.6635C21.6442 13.2723 18.7219 13.2724 17.8245 13.6405C16.5359 14.1928 15.2013 15.5044 14.7641 16.6779C14.2119 18.1275 14.419 20.2675 15.2703 21.8092C15.9146 23.0057 17.3183 24.2713 18.2617 24.5014C18.6989 24.6165 18.7909 24.8466 18.929 26.3883C19.1821 29.4026 19.6883 32.1869 20.5397 35.2933C22.0354 40.7467 21.6902 40.1715 25.694 44.2673C27.6729 46.2922 32.9883 51.7687 37.4984 56.4628C42.0314 61.1339 46.7025 65.9661 47.899 67.1627L50.085 69.3256L50.7063 68.7734C51.0285 68.4512 52.0179 67.2087 52.8693 66.0121C54.9172 63.1358 57.0572 61.1339 58.6219 60.6047C59.9795 60.1445 60.992 60.2365 62.6487 60.9499C63.247 61.203 64.2134 61.4101 64.8347 61.4101C65.8011 61.4101 66.1233 61.272 67.3428 60.3516C68.1252 59.7763 68.8615 59.109 68.9766 58.8789C69.3217 58.2346 69.2527 55.9566 68.8615 55.2203C67.9871 53.4945 64.0984 51.0324 61.038 50.25C60.3016 50.0659 58.7139 49.9049 57.5174 49.9049C53.9968 49.9049 51.4426 50.7793 47.83 53.1954C46.7715 53.9317 45.7131 54.5069 45.506 54.5069C44.6776 54.5069 41.226 51.8608 38.7409 49.3296C37.4523 47.995 35.2664 44.5665 34.438 42.5415C34.0468 41.5981 33.5406 40.4016 33.3105 39.8723C33.0804 39.3661 32.7122 38.3307 32.5051 37.5713C31.9759 35.7075 31.2856 34.741 29.7669 33.6826C28.5473 32.8542 28.4553 32.8312 28.0641 33.1993C27.4658 33.7056 27.0056 33.4755 26.5454 32.463C25.9702 31.1284 25.7401 29.7018 25.717 27.6538C25.717 24.5935 26.0392 23.558 27.4658 22.0623L28.6854 20.7737L28.1331 19.8763C27.834 19.3701 27.1667 18.7028 26.6375 18.3807C24.7736 17.2762 24.1293 16.5398 23.8762 15.2052C23.485 13.0422 24.1293 11.2244 25.625 10.304C26.9136 9.52166 31.8148 7.58879 35.2664 6.53031C38.948 5.4028 39.3852 5.31076 42.4456 5.05765C44.4245 4.87356 45.1148 4.68948 47.9221 3.53896C49.6939 2.82564 51.3736 2.18135 51.6728 2.11232C52.3861 1.95125 52.317 1.69813 51.4426 1.28394C49.5098 0.386539 48.1522 0.156436 44.5856 0.0643941C41.7553 -0.00463703 40.6048 0.0643941 38.948 0.40955ZM22.9788 16.4478C23.7382 16.7929 24.3364 17.1381 24.3364 17.2531C24.3364 17.4372 23.7151 17.5753 21.8053 17.7824C20.0565 17.9665 19.7574 18.9789 20.8849 20.6817C21.253 21.257 21.5752 21.8552 21.5752 21.9933C21.5752 22.5225 20.5167 22.3154 19.5503 21.6021C17.2262 19.9223 17.3643 17.4142 19.8264 16.2867C21.069 15.7115 21.3911 15.7345 22.9788 16.4478Z" fill="white"/>
<path d="M63.7992 0.662658C59.7724 1.67511 58.3918 2.15833 53.5366 4.22927C51.0054 5.31075 48.8425 6.18515 48.7274 6.18515C48.5894 6.18515 47.5309 6.50729 46.3804 6.87546C44.9077 7.35868 43.412 7.65781 41.6172 7.79587C39.3392 8.00297 38.4418 8.21006 35.1743 9.33757C30.5032 10.9483 27.4198 12.2369 26.7065 12.9042C26.1082 13.4564 26.0392 14.3768 26.5224 15.0211C26.7065 15.2512 27.3278 15.7805 27.926 16.1717C28.6163 16.6088 29.2836 17.3222 29.6978 18.0355C31.3086 20.7967 32.9883 22.2004 35.6805 23.0287C40.2366 24.4094 44.9537 21.6941 46.3113 16.908C46.5875 15.9876 46.6795 14.9521 46.6335 13.5945L46.5414 11.6156L47.83 10.9483C49.3487 10.1659 51.7188 9.8438 52.294 10.327C52.5011 10.4881 53.0764 11.3165 53.5596 12.1678C54.5721 13.9166 55.4234 14.653 57.6324 15.6654C58.967 16.2867 59.4503 16.4018 61.038 16.4018C63.293 16.4248 64.9037 15.7575 66.6755 14.1007C68.7925 12.1218 69.5518 9.54466 68.9996 6.32321C68.7464 4.89657 68.7695 4.73549 69.2067 4.18325C69.92 3.28584 69.8509 1.28394 69.0916 0.547606C68.3553 -0.211736 67.1127 -0.188726 63.7992 0.662658ZM59.3352 7.17459C59.9565 7.58878 60.1406 7.86491 60.1866 8.60124C60.2556 9.31456 60.1636 9.56767 59.7264 9.91283C58.967 10.4881 58.4608 10.4191 57.6785 9.65972C56.9191 8.90037 56.8041 7.95695 57.3793 7.15158C57.8165 6.50729 58.3458 6.50729 59.3352 7.17459ZM35.6115 13.7095C36.8541 14.5609 37.1072 15.5044 36.3018 16.3097C34.8752 17.7364 32.5511 15.2512 33.9317 13.7326C34.392 13.2033 34.8752 13.2033 35.6115 13.7095Z" fill="white"/>
<path d="M49.3257 12.6741C48.7044 12.9042 48.6814 12.9732 48.8195 13.9627C48.8885 14.5609 49.0496 15.1132 49.1646 15.2282C49.3487 15.4123 51.9489 14.699 51.9489 14.4689C51.9489 14.3999 51.6958 13.9396 51.4196 13.4334C50.8674 12.444 50.4072 12.2829 49.3257 12.6741Z" fill="white"/>
<path d="M70.7023 16.6319C66.7906 17.3682 64.7887 18.0355 64.5356 18.7028C64.3515 19.14 65.8241 20.4516 66.3764 20.3365C66.6065 20.2905 68.2862 19.9684 70.1271 19.6232C75.5115 18.6338 75.6956 18.5647 76.1098 17.8744C76.3629 17.3912 76.3859 17.1381 76.2018 16.839C75.8797 16.3097 73.0264 16.2177 70.7023 16.6319Z" fill="white"/>
<path d="M52.1099 17.2531C50.2231 17.6903 48.9575 18.7948 48.4743 20.4516C48.2442 21.2109 48.2672 21.441 48.6584 22.1083C49.2336 23.0978 50.6373 24.0412 52.0639 24.4094C52.7082 24.5704 53.2375 24.6855 53.2605 24.7085C53.2835 24.7085 53.0994 25.3298 52.8463 26.0661C52.294 27.7689 51.2125 29.1035 49.6248 30.0469C48.4283 30.7602 45.2989 31.7267 44.2174 31.7267C43.6421 31.7267 42.9748 32.2789 42.9748 32.7621C42.9748 33.3604 43.8032 34.0737 44.7466 34.2578C46.2193 34.5109 48.1752 34.1197 50.2231 33.1303C52.1099 32.2099 53.0534 31.4505 54.48 29.6787L55.3084 28.6663L56.2058 29.1265C57.0112 29.5407 57.9086 29.7938 60.1636 30.254L60.6698 30.346L60.0945 31.7727C59.4042 33.5675 59.4042 34.1888 60.1176 36.6509C61.3141 40.7467 64.1214 45.1417 66.9056 47.2127C68.5394 48.4322 68.6314 48.4322 69.4368 47.0516C69.8049 46.3843 70.1271 45.671 70.1271 45.4639C70.1271 45.2798 69.7129 44.7736 69.2067 44.3824C68.2402 43.623 65.8932 40.5166 65.1108 38.9749C64.4205 37.5943 62.5336 32.0718 62.5336 31.4045C62.5336 30.9443 62.8788 30.5992 64.2364 29.6557C66.6295 27.999 67.734 26.2042 66.8826 25.3528C66.6985 25.1687 66.9056 25.1457 67.6189 25.2838C68.1712 25.3758 69.3677 25.6059 70.2421 25.744C71.1395 25.905 72.4051 26.2272 73.0954 26.4573C73.7857 26.7104 74.6371 26.8945 74.9823 26.8945C76.3399 26.8945 76.685 24.9846 75.5345 23.9031C74.8442 23.2589 71.0935 22.2924 68.6084 22.1313L66.7445 21.9933L66.2153 23.0978C65.8011 23.9262 65.7321 24.2943 65.9392 24.5935C66.1463 24.9156 65.9852 25.1227 64.9267 25.813C62.1425 27.6308 58.6679 27.3317 55.4695 24.9616C54.7331 24.4324 54.7331 24.4324 55.2394 24.2023C55.5385 24.0642 56.2058 23.3049 56.735 22.5225C57.5634 21.28 57.7015 20.8888 57.7015 19.8763C57.7015 18.5647 57.4714 18.1736 56.3208 17.4832C55.4464 16.954 53.7437 16.862 52.1099 17.2531ZM54.8482 18.2426C55.0323 18.7028 54.5721 19.4621 54.0198 19.6462C53.5136 19.8073 52.4091 19.232 52.4091 18.8409C52.4091 18.5417 53.5826 17.9435 54.2039 17.9204C54.48 17.9204 54.7792 18.0585 54.8482 18.2426Z" fill="white"/>
<path d="M63.6151 21.7632C63.5231 21.8322 63.4541 22.2464 63.4541 22.6836C63.4541 23.2128 63.5691 23.4429 63.8222 23.4429C64.4435 23.4429 65.0648 22.9827 65.0648 22.5225C65.0648 21.9012 64.0063 21.349 63.6151 21.7632Z" fill="white"/>
<path d="M43.1129 25.0767C42.6297 25.79 42.6527 26.2732 43.2279 26.8024C44.2634 27.7459 45.0688 26.0661 44.0563 25.0767L43.4811 24.5704L43.1129 25.0767Z" fill="white"/>
<path d="M34.3459 27.4698C31.9529 28.5512 29.951 29.4256 29.9279 29.4256C29.9049 29.4256 29.7669 29.6327 29.6288 29.8858C29.4447 30.231 29.4907 30.4381 29.8589 30.8063C30.5722 31.5196 31.7228 31.3815 34.438 30.254C35.7726 29.6787 37.6824 28.8964 38.6719 28.5052C40.6048 27.6999 40.9729 27.3087 40.7658 26.2272C40.5127 25.0076 39.4082 25.2147 34.3459 27.4698Z" fill="white"/>
<path d="M11.9798 27.0556C10.5532 27.1016 9.37968 27.2166 9.37968 27.3087C9.40269 27.6538 17.0421 35.2703 17.1342 35.0171C17.2722 34.649 16.1677 27.4007 15.9606 27.1936C15.8226 27.0325 14.3039 26.9865 11.9798 27.0556Z" fill="white"/>
<path d="M1.51013 28.045C0.244557 29.0344 -0.215651 31.4045 0.543692 33.0152C0.911858 33.7976 5.99715 38.7678 10.3001 42.5645C13.5446 45.3948 21.3451 53.2644 22.5186 54.8521L23.5541 56.2327L26.0852 56.3478C27.88 56.4398 28.7774 56.5779 29.1686 56.831C30.2271 57.5443 31.0785 58.5338 31.6537 59.7763C32.16 60.9038 32.206 61.1799 32.0679 63.0208L31.9298 65.0227L34.0468 67.0016C37.2683 69.9699 75.4425 108.282 88.3053 121.421C96.2438 129.567 96.497 129.774 98.2918 129.429C99.2352 129.245 100.363 128.37 100.846 127.427C101.03 127.082 101.191 126.276 101.191 125.632C101.191 124.666 101.053 124.343 100.294 123.354C99.7874 122.733 99.0971 121.996 98.729 121.72C98.0156 121.168 78.9861 102.461 72.244 95.6955C46.8406 70.177 37.7285 60.9498 31.0094 53.9317C23.7151 46.2922 5.76705 28.2061 5.2148 27.9069C4.24836 27.4237 2.20044 27.4927 1.51013 28.045Z" fill="white"/>
<path d="M38.0966 31.8878C35.0363 34.8331 34.2079 36.3748 34.9212 37.7324C35.4044 38.6068 36.2098 38.2846 37.4063 36.7429C38.0046 35.9376 39.2932 34.4419 40.2596 33.4064C42.1234 31.4506 42.2155 31.2205 41.4101 30.277C41.226 30.0699 40.8579 29.8858 40.6278 29.8858C40.3977 29.8858 39.2472 30.7833 38.0966 31.8878Z" fill="white"/>
<path d="M65.6631 33.7286C66.1923 36.0526 67.9871 39.3661 69.7819 41.345C70.9554 42.6336 71.1395 42.7487 71.4847 42.4725C71.6918 42.2884 72.4051 41.9433 73.0724 41.6902L74.2689 41.253L70.2191 37.3642C65.64 32.9462 65.433 32.7852 65.6631 33.7286Z" fill="white"/>
<path d="M75.4195 44.3134C73.2105 45.1187 70.3572 49.0995 70.6563 50.9634C70.8404 52.0448 71.3696 52.8502 72.152 53.1954C72.4971 53.3334 73.1644 53.7936 73.6477 54.2078C74.384 54.8751 74.6601 54.9672 75.7416 54.9672C78.5028 54.9672 82.0234 53.2874 82.9438 51.5386C83.5651 50.3191 83.6342 48.6163 83.1049 47.4658C81.9084 44.9346 78.0426 43.3469 75.4195 44.3134Z" fill="white"/>
<path d="M10.5302 45.3258C10.5302 45.9241 11.9338 49.3066 13.0844 51.3775C13.8667 52.7812 14.8101 54.5069 15.2013 55.1973C16.3058 57.2452 18.883 60.4896 19.3892 60.4896C19.5273 60.4896 19.8724 59.9374 20.1715 59.2471C20.4477 58.5568 20.8388 57.8665 21.0229 57.7054C21.5292 57.2912 21.4141 56.946 20.3786 55.8646C19.3662 54.8061 15.9837 51.1244 14.1888 49.0995C12.6241 47.3277 10.5302 45.1647 10.5302 45.3258Z" fill="white"/>
<path d="M81.5172 56.0947C80.4817 56.3478 79.7914 56.785 79.7914 57.1761C79.7914 57.6133 80.9419 58.7178 82.2075 59.5232C83.4961 60.3516 85.9352 61.295 87.753 61.7092C89.5018 62.1234 95.2314 62.8597 99.3502 63.2509C103.354 63.619 104.919 63.8722 111.316 65.1377C117.252 66.3113 120.566 67.3007 122.43 68.4742L123.327 69.0265L123.166 68.2671C122.729 66.2192 119.622 62.1004 117.022 60.1445C113.847 57.7514 111.178 56.808 107.174 56.6469C103.768 56.5088 101.237 56.785 97.2793 57.7744C92.3321 58.994 88.6964 58.6948 84.4165 56.6929C82.6447 55.8415 82.5987 55.8415 81.5172 56.0947Z" fill="white"/>
<path d="M24.7966 59.5922C23.1169 60.2595 21.9203 62.2844 21.3451 65.4369C21.184 66.3113 20.8158 68.1751 20.4937 69.5787C20.1946 70.9594 19.7343 73.1914 19.4812 74.526C19.2281 75.8606 18.7679 78.0696 18.4688 79.4732C18.1466 80.8538 17.6404 83.2009 17.3413 84.6505C17.0421 86.1002 16.2598 89.7818 15.6155 92.8192C14.9712 95.8566 14.1658 99.6303 13.8437 101.218C13.5215 102.806 13.0613 104.808 12.8312 105.705C12.6011 106.579 12.348 107.707 12.256 108.167C12.1869 108.65 11.9338 109.134 11.7037 109.249C11.4736 109.387 9.70182 110.008 7.74594 110.675C1.76324 112.677 0.957881 113.137 0.26757 114.932C-0.445752 116.819 0.313591 119.166 1.99335 120.156C3.25892 120.892 4.3174 120.685 11.8188 118.131C19.9645 115.346 23.6921 114.15 29.5138 112.493C31.7918 111.849 34.9442 110.905 36.5319 110.422C38.1196 109.939 42.0544 108.742 45.2759 107.776C54.8022 104.923 64.8577 101.586 64.7887 101.31C64.7426 101.172 63.408 99.6763 61.7973 97.9965L58.852 94.9592L57.1952 95.4194C56.2748 95.6725 54.6411 96.1557 53.5596 96.5009C52.4781 96.846 49.1186 97.8355 46.0812 98.7099C43.0439 99.6073 39.3162 100.712 37.7975 101.218C36.2788 101.701 33.1264 102.668 30.7793 103.381C28.4323 104.094 25.1878 105.13 23.5541 105.705C21.9203 106.28 20.5397 106.74 20.4937 106.74C20.1255 106.74 20.9079 102.461 22.3805 96.1557C22.8177 94.3149 23.7612 90.173 24.4515 86.9516C25.1648 83.7301 26.0852 79.4732 26.5224 77.5173C26.9596 75.5614 27.3738 73.5365 27.4428 73.0303C27.5349 72.5241 28.0181 70.3151 28.5013 68.1291C29.5598 63.435 29.6288 62.0543 28.8695 60.9268C27.9721 59.5922 26.2233 59.04 24.7966 59.5922ZM15.7075 110.215C16.4899 111.158 16.4439 112.355 15.5695 112.999C15.0172 113.414 14.9022 113.414 14.1428 113.114C12.8542 112.562 12.5551 111.734 13.1534 110.307C13.4525 109.617 13.6136 109.502 14.3039 109.502C14.9022 109.502 15.2243 109.663 15.7075 110.215Z" fill="white"/>
<path d="M57.8855 64.3324C57.2182 65.2068 56.0447 66.7024 55.3084 67.6919C54.572 68.6813 53.5136 69.8779 52.9383 70.3381L51.9259 71.2125L68.7004 88.1711L70.5182 87.7569C73.4866 87.0666 85.6591 83.385 89.1106 82.1424C93.8968 80.4166 95.3234 80.2095 102.802 80.1865L109.153 80.1635L110.51 80.9689C112.558 82.1654 114.054 83.7991 115.066 85.8701C116.47 88.7924 116.953 90.7943 116.93 93.8547C116.93 98.0426 116.079 101.31 112.765 109.916C110.602 115.576 109.866 118.453 109.245 123.768C108.6 129.176 108.692 136.309 109.429 139.875C110.786 146.249 112.581 150 114.307 150C115.826 150 116.033 148.734 115.112 144.846C114.284 141.371 113.985 138.196 114.146 134.583C114.491 126.76 116.332 122.48 123.028 113.874C125.421 110.813 127.124 108.144 129.471 103.818C132.048 99.101 132.968 95.6955 132.968 90.8633C132.968 86.4453 131.979 82.8787 129.563 78.7829C127.055 74.503 121.026 69.9929 116.608 69.0955C114.054 68.5893 108.877 68.7964 104.182 69.6017C101.375 70.108 100.662 70.154 99.6954 69.9469C97.0262 69.3486 95.8757 69.2796 93.6897 69.4867C91.0205 69.7398 87.8911 70.5452 85.2679 71.6727C81.126 73.4445 75.6726 73.0993 69.5058 70.6372C66.8136 69.5787 62.2575 66.2882 60.6698 64.2863C60.0255 63.458 59.4042 62.7907 59.3122 62.7907C59.1971 62.7907 58.5528 63.481 57.8855 64.3324Z" fill="white"/>
<path d="M31.2395 68.8654C31.2395 69.0495 30.9634 70.062 30.6413 71.0974L30.043 72.9843L31.8608 74.8021C34.3689 77.3562 39.5463 81.6822 42.9748 84.0753C45.621 85.9161 52.9383 90.4031 53.9278 90.7943C54.411 90.9784 36.0487 72.432 33.4715 70.131C31.6537 68.5203 31.2395 68.2902 31.2395 68.8654Z" fill="white"/>
<path d="M128.85 70.0389C126.433 70.5682 126.433 70.6142 128.758 73.0073C130.69 75.0092 131.45 76.0677 132.577 78.2997C132.876 78.8749 133.245 79.2661 133.544 79.3121C133.981 79.3812 138.146 77.4253 138.928 76.781C139.618 76.2287 140.079 75.3313 140.079 74.595C140.079 73.5135 138.79 72.1789 136.765 71.1895C133.774 69.6938 131.749 69.4177 128.85 70.0389Z" fill="white"/>
<path d="M100.892 84.1213L96.566 84.1903L97.2333 85.1798C98.2227 86.6294 98.4989 87.6649 98.3608 89.5517C98.2918 90.4722 98.1997 91.4156 98.1537 91.6687C98.0847 92.1059 98.2918 92.1289 105.218 92.4511C109.153 92.6351 112.65 92.7042 112.995 92.6121C113.387 92.5201 113.617 92.313 113.617 92.0599C113.617 90.7483 111.753 85.709 110.809 84.5355C110.372 83.9832 110.28 83.9602 107.795 84.0062C106.368 84.0523 103.262 84.0983 100.892 84.1213Z" fill="white"/>
<path d="M91.9869 84.5585C90.3302 85.3178 83.197 87.6189 78.9861 88.7694C73.6246 90.2421 71.5307 90.8863 71.3926 91.0704C71.2546 91.3235 78.0426 98.2266 78.4338 98.2266C78.6179 98.2266 80.0675 97.8125 81.6322 97.2832C83.22 96.777 85.567 96.1097 86.8556 95.8106C89.5938 95.1663 92.8613 93.8777 93.9658 93.0493C95.6456 91.7607 96.612 88.4012 95.8066 86.6754C94.8172 84.5815 93.5056 83.8682 91.9869 84.5585Z" fill="white"/>
<path d="M135.73 84.3514C135.292 84.4434 135.223 84.5585 135.338 85.0647C135.408 85.4099 135.615 86.3993 135.799 87.2967C136.006 88.1711 136.167 89.5057 136.167 90.219C136.167 91.4156 136.213 91.5536 136.696 91.6457C136.972 91.7147 139.227 91.8067 141.689 91.8758C146.867 92.0138 150.479 91.7837 151.538 91.2315C153.333 90.3111 154.23 87.2507 153.195 85.617C152.343 84.2363 151.952 84.1673 143.691 84.2133C139.618 84.2363 136.029 84.3054 135.73 84.3514Z" fill="white"/>
<path d="M136.029 94.1998C135.799 94.7981 136.144 95.6955 136.604 95.6955C137.133 95.6955 143.3 94.1538 143.484 93.9928C143.553 93.9237 141.919 93.8547 139.872 93.8547C136.765 93.8547 136.121 93.9237 136.029 94.1998Z" fill="white"/>
<path d="M96.4509 95.2123C94.6561 96.0407 94.9092 96.2478 97.4174 96.0867C98.6599 95.9946 100.317 95.9256 101.076 95.9026H102.457L101.605 95.5805C101.145 95.3964 100.248 95.2123 99.6494 95.1203C99.0511 95.0512 98.2918 94.9362 97.9696 94.8671C97.6475 94.8211 96.9572 94.9822 96.4509 95.2123Z" fill="white"/>
<path d="M134.464 102.184C134.165 102.852 133.452 104.232 132.876 105.222L131.841 107.04L132.968 107.615C134.073 108.19 138.238 111.872 138.008 112.102C137.824 112.286 130.598 112.677 129.356 112.562C128.205 112.447 128.182 112.47 127.216 113.575C126.687 114.173 125.743 115.346 125.099 116.175C124.155 117.371 123.994 117.693 124.316 117.739C124.524 117.785 126.065 117.67 127.745 117.463C129.402 117.279 132.531 117.049 134.671 116.98C136.834 116.888 139.319 116.681 140.194 116.497C141.091 116.313 141.896 116.175 142.011 116.175C142.127 116.175 143.162 117.095 144.313 118.2C145.463 119.327 146.66 120.409 146.982 120.616C147.626 121.053 149.605 121.145 150.594 120.754C152.205 120.156 153.241 118.269 152.757 116.796C152.458 115.899 147.81 111.435 141.712 106.142C136.765 101.862 135.684 101.011 135.292 100.988C135.131 100.988 134.763 101.54 134.464 102.184Z" fill="white"/>
<path d="M64.2594 105.153C62.9939 105.521 60.5087 106.28 58.7369 106.833C53.9508 108.328 43.0208 111.412 41.4331 111.711C40.5587 111.872 40.4897 112.194 41.134 112.999C42.0084 114.127 42.6757 114.219 45.8051 113.644C47.3468 113.344 50.2691 112.677 52.294 112.148C55.3544 111.32 56.5049 110.882 59.1971 109.502C60.9689 108.581 62.7868 107.546 63.224 107.178C63.6612 106.81 64.5586 106.165 65.2028 105.728C66.1693 105.084 66.9516 104.393 66.6295 104.462C66.5835 104.462 65.525 104.785 64.2594 105.153Z" fill="white"/>
<path d="M99.4653 116.796C98.5909 116.842 97.7165 116.934 97.5554 116.98C97.1182 117.141 99.4423 119.741 100.639 120.455C101.49 120.961 101.812 121.007 104.482 121.007H107.404V120.34C107.404 119.971 107.611 119.005 107.864 118.2C108.117 117.417 108.324 116.727 108.324 116.681C108.324 116.612 101.582 116.704 99.4653 116.796Z" fill="white"/>
</svg>
